<?xml version="1.0" encoding="UTF-8"?>
<svg id="Layer_1" data-name="Layer 1" xmlns="http://www.w3.org/2000/svg" xmlns:xlink="http://www.w3.org/1999/xlink" viewBox="0 0 1182.48 1182.48">
  <defs>
    <style>
      .cls-1 {
        fill: #ca9a2d;
      }

      .cls-2 {
        fill: url(#linear-gradient-2);
      }

      .cls-3 {
        fill: #fff;
      }

      .cls-4 {
        clip-path: url(#clippath-2);
      }

      .cls-5 {
        clip-path: url(#clippath-6);
      }

      .cls-6 {
        clip-path: url(#clippath-1);
      }

      .cls-7 {
        clip-path: url(#clippath-4);
      }

      .cls-8 {
        fill: url(#radial-gradient);
      }

      .cls-9 {
        clip-path: url(#clippath);
      }

      .cls-10 {
        fill: url(#radial-gradient-2);
      }

      .cls-11 {
        fill: none;
      }

      .cls-12 {
        clip-path: url(#clippath-3);
      }

      .cls-13 {
        fill: url(#linear-gradient-3);
      }

      .cls-14 {
        clip-path: url(#clippath-5);
      }

      .cls-15 {
        fill: url(#linear-gradient);
      }
    </style>
    <clipPath id="clippath">
      <rect class="cls-11" y="0" width="1182.48" height="1182.48"/>
    </clipPath>
    <clipPath id="clippath-1">
      <path class="cls-11" d="M127,591.24c0-256.35,207.88-464.24,464.24-464.24s464.24,207.88,464.24,464.24-207.88,464.24-464.24,464.24h-.16c-256.29,.02-464.07-207.84-464.07-464.24M591.24,0C264.75,0,0,264.75,0,591.24s264.66,591.24,591.24,591.24,591.24-264.66,591.24-591.24S917.82,0,591.24,0Z"/>
    </clipPath>
    <radialGradient id="radial-gradient" cx="-.74" cy="1.64" fx="-.74" fy="1.64" r="9.03" gradientTransform="translate(639.61 484.07) scale(65.5)" gradientUnits="userSpaceOnUse">
      <stop offset="0" stop-color="#6e4130"/>
      <stop offset=".27" stop-color="#6e4130"/>
      <stop offset=".43" stop-color="#71442f"/>
      <stop offset=".57" stop-color="#7c4d2b"/>
      <stop offset=".71" stop-color="#8e5b25"/>
      <stop offset=".84" stop-color="#a77029"/>
      <stop offset=".96" stop-color="#c2862b"/>
      <stop offset="1" stop-color="#c2862b"/>
    </radialGradient>
    <clipPath id="clippath-2">
      <path class="cls-11" d="M127,591.24c0-256.35,207.88-464.24,464.24-464.24s464.24,207.88,464.24,464.24-207.88,464.24-464.24,464.24h-.16c-256.29,.02-464.07-207.84-464.07-464.24M591.24,0C264.75,0,0,264.75,0,591.24s264.66,591.24,591.24,591.24,591.24-264.66,591.24-591.24S917.82,0,591.24,0Z"/>
    </clipPath>
    <radialGradient id="radial-gradient-2" cy="-18.68" fy="-18.68" r="9.03" gradientTransform="translate(639.61 -632.11) scale(65.5 -65.5)" xlink:href="#radial-gradient"/>
    <clipPath id="clippath-3">
      <rect class="cls-11" y="0" width="1182.48" height="1182.48"/>
    </clipPath>
    <clipPath id="clippath-4">
      <path class="cls-11" d="M265.65,910.15c-83.13-81.78-134.41-194.43-134.41-319s51.27-237.22,134.41-318.91c83.13-81.78,197.95-132.33,324.96-132.33s241.73,50.55,324.96,132.33c83.13,81.78,134.41,194.43,134.41,318.91s-51.27,237.22-134.41,319c-83.13,81.69-197.95,132.24-324.87,132.24h-.33c-126.97,0-241.56-50.53-324.71-132.24m-27.8-666.25c-90.27,88.73-146.23,211.67-146.23,347.25s55.96,258.52,146.23,347.25c90.36,88.82,215.1,143.7,352.76,143.7s262.49-54.88,352.76-143.7c90.27-88.73,146.32-211.67,146.23-347.25,0-135.58-55.96-258.52-146.23-347.25-90.27-88.73-215.1-143.7-352.76-143.7s-262.4,54.88-352.76,143.7"/>
    </clipPath>
    <linearGradient id="linear-gradient" x1="-6.8" y1="-13.43" x2="2.23" y2="-13.43" gradientTransform="translate(-870.33 839.82) rotate(90) scale(108.78)" gradientUnits="userSpaceOnUse">
      <stop offset="0" stop-color="#fff"/>
      <stop offset="0" stop-color="#fff"/>
      <stop offset=".51" stop-color="#bdbec0"/>
      <stop offset="1" stop-color="#bdbec0"/>
    </linearGradient>
    <clipPath id="clippath-5">
      <path class="cls-11" d="M660.2,329.11c-.36,2.08,8.76,7.4,16.34,12.55,7.67,5.15,42.33,35.65,48.83,44.41,0,0,42.7,51.09,55.06,95.23,0,0,2.62,6.41,4.78-6.41,0,0,12.1-51.63-18.5-91.53,0,0-25.27-39.09-86.66-52.62,0,0-12.1-2.26-17.42-2.26-1.44,0-2.44,.18-2.44,.63m-63.37,449.25v-.18l102.18-136.21h99.74s19.05,.36,30.06,8.39c0,0,16.07,10.38,14.89,21.21,0,0-1.81,6.41-7.85,1.62,0,0-7.22-13.09-24.28-18.23,0,0-27.08-7.67-42.97,0,0,0-7.58,4.15-2.8,12.01,0,0,5.6,2.44-10.47,20.31s-94.96,105.34-94.96,105.34l-55.96,16.7-7.58-30.96Zm-4.78-542.32V857.52h344c-25-12.19-26.99-27.71-26.99-27.71,0,0-1.99-7.49,3.97-12.55,0,0,2.98-2.44,7.49-1.26,0,0-9.75-5.96-19.32,2.35,0,0-3.97,2.89-7.22,10.02,0,0-2.44,6.05-9.66,5.15,0,0-2.44-.27-4.6-1.81-1.08-.81-2.17-2.08-2.8-3.88,0,0-2.8-5.42,3.25-10.56,0,0,2.98-2.44,7.49-1.26,0,0-9.84-5.96-19.32,2.35,0,0-3.97,2.89-7.22,10.02,0,0-2.44,6.05-9.66,5.15,0,0-2.53-.27-4.6-1.9-1.08-.81-2.17-2.08-2.8-3.88,0,0-2.8-5.42,3.25-10.56,0,0,2.98-2.44,7.49-1.26,0,0-9.84-5.96-19.32,2.35,0,0-3.97,2.89-7.22,10.02,0,0-2.44,6.05-9.66,5.15,0,0-2.44-.27-4.51-1.81-1.08-.81-2.26-2.08-2.8-3.88,0,0-2.8-5.42,3.25-10.56,0,0,2.89-2.44,7.49-1.26,0,0-9.84-5.96-19.32,2.35,0,0-3.97,2.89-7.22,10.02,0,0-2.44,6.05-9.66,5.15,0,0-1.81-.27-3.61-1.17-1.35-.81-2.89-2.17-3.61-4.51,0,0-2.8-5.42,3.25-10.56,0,0,2.98-2.44,7.49-1.26,0,0-9.75-5.96-19.32,2.35,0,0-3.97,2.89-7.31,10.02,0,0-2.44,6.05-9.66,5.15,0,0-2.53-.27-4.6-1.9v.09c-1.08-.81-2.26-2.08-2.8-3.88,0,0-2.8-5.42,3.25-10.56,0,0,2.98-2.44,7.49-1.26,0,0-9.84-5.96-19.32,2.35,0,0-3.97,2.89-7.22,10.02,0,0-2.44,6.05-9.66,5.15,0,0-2.44-.27-4.51-1.81-1.17-.81-2.26-2.08-2.8-3.88,0,0-2.8-5.42,3.25-10.56,0,0,2.98-2.44,7.49-1.26,0,0-9.75-5.96-19.32,2.35,0,0-3.97,2.89-7.31,10.02,0,0-2.71,5.78-9.21,4.87,2.71-9.21,9.3-19.86,23.74-30.15,0,0,22.02-22.66,37.91-28.43,0,0,5.87-3.61,4.24-7.13,0,0-1.53-4.78-10.02-.54l-57.05,18.59s-11.92,4.24-6.77-1.9c5.24-6.14,59.49-64.63,59.49-64.63,0,0,76.27-9.93,113.73-39.81,0,0,52.44-36.92,70.68-93.97,0,0,7.49-23.83,8.58-40.8,0,0,3.07-24.19-.9-42.97,0,0-8.94-41.52-11.55-46.31,0,0-6.05-24.64-31.41-55.15,0,0-24.37-30.24-51.54-43.96,0,0-23.47-19.05-79.16-31.86,0,0-33.85-7.76-65.89-5.6,0,0-11.73,.9-13.54,2.71,0,0-1.62,1.72,1.62,2.44s32.77,9.3,48.2,16.43c0,0,18.59,7.85,33.85,20.22,0,0,21.66,21.12,27.35,33.22,0,0,11.73,19.86,13.09,40.35,0,0,2.89,20.23-8.94,46.31,0,0-3.43,22.39-40.35,69.41l-64.81,92.07-76.27,102.18-8.03,9.75c-11.46,.81-3.61-13.27-3.61-13.27,43.33-80.7,52.99-164.55,52.99-164.55,9.66-65.8,1.17-150.11,1.17-150.11-13.63-114.46-58.85-185.59-60.93-188.66-.96-.71-1.34-1.01-1.55-1.01-.03,0-.05,0-.07,.02m-.27-29.61c.99-.72,1.99-1.17,3.16-1.17,3.43,0,6.14,3.61,6.14,8.03s-2.8,8.03-6.14,8.03c-1.26,0-2.35-.45-3.34-1.26v1.17h.45v6.77c30.6,4.33,61.83-10.65,61.83-10.65,16.25-8.94-.27-6.59-.27-6.59-40.8,3.61-61.65-17.15-61.65-17.15l-.18,12.82Zm-2.62-26c0,3.79,1.44,6.86,3.25,6.86s3.25-3.07,3.25-6.86-1.53-6.86-3.25-6.86c-1.81,0-3.25,3.07-3.25,6.86"/>
    </clipPath>
    <linearGradient id="linear-gradient-2" x1="-6.32" y1="-.34" x2="2.71" y2="-.34" gradientTransform="translate(790.88 617.37) rotate(90) scale(83.95 -83.95)" gradientUnits="userSpaceOnUse">
      <stop offset="0" stop-color="#3097c0"/>
      <stop offset=".45" stop-color="#0877ac"/>
      <stop offset="1" stop-color="#24428f"/>
    </linearGradient>
    <clipPath id="clippath-6">
      <path class="cls-11" d="M273.6,863.21h.18v-.09c-.09,.09-.18,.09-.18,.09m-7.22-4.51h.18v-.09c-.09,.09-.18,.09-.18,.09M552.88,308.17c-.81,0-.9,3.25-.9,3.25l5.24,238.21c-4.15,9.48-9.21,1.44-9.21,1.44l-57.14-223.41s-.99-3.16-1.62-2.44-.63,2.62-.63,2.62l28.7,234.24c-3.79,11.19-11.46,3.43-11.46,3.43,0,0-81.6-190.28-84.49-196.69-2.08-4.6-2.89-4.87-2.89-4.87-.27-.09-.36,.18-.36,.72-.18,14.17,53.26,216.64,53.26,216.64-1.99,12.01-11.46,4.06-11.46,4.06,0,0-99.56-166.72-103.26-171.41-1.08-1.35-1.53-1.44-1.99-1.26-.99,.54-.27,2.44-.27,2.44l77.45,190.91c-.09,9.93-9.21,6.05-9.21,6.05,0,0-113.37-120.05-118.16-124.21-4.87-4.15-1.99,2.17-1.99,2.17l88.73,140.9c5.78,8.67,.81,12.82-3.61,11.82-4.42-.99-115.18-86.29-118.43-88.28s-1.62,.99-1.62,.99c-.81,5.24,83.77,101.1,83.77,101.1,15.62,16.16,12.55,18.59,12.55,18.59-1.9,5.78-7.4,3.34-7.4,3.34-3.25-.18-111.57-63.82-111.57-63.82-2.98-.36-.99,2.62-.99,2.62l96.95,91.8c3.07,5.15-2.17,6.77-2.17,6.77,0,0-89.54-25.27-97.76-28.34-8.21-3.16-8.21-1.72-8.21-1.72-1.99,1.35,.18,3.25,.18,3.25l90.09,60.21c3.34,3.52,2.08,7.31-1.53,9.21-1.9,.99-22.75-1.44-42.42-3.97-17.87-2.26-34.75-4.42-35.93-4.06-2.44,.63-1.53,2.62-1.53,2.62-1.9,3.43,69.32,32.86,69.32,32.86,7.58,3.88,4.51,10.65,1.81,12.55s-60.48,6.68-60.48,6.68c-6.14,0-1.35,2.98-1.35,2.98l54.07,18.96c6.41,1.9,8.03,6.41,3.97,12.01-3.34,4.6-29.97,14.98-39.27,18.5h323.15v-310.97c-1.81-.54-2.17-2.89-2.17-2.89,0,0-34.39-224.31-35.75-230-.81-3.79-.9-5.42-1.9-5.6h-.09Z"/>
    </clipPath>
    <linearGradient id="linear-gradient-3" x1="-3.52" y1="7.99" x2="5.5" y2="7.99" gradientTransform="translate(372.67 266.04) scale(39.98)" gradientUnits="userSpaceOnUse">
      <stop offset="0" stop-color="#d2242a"/>
      <stop offset="0" stop-color="#d2242a"/>
      <stop offset=".17" stop-color="#c92128"/>
      <stop offset=".68" stop-color="#b22024"/>
      <stop offset="1" stop-color="#a91f23"/>
    </linearGradient>
  </defs>
  <g id="City_Logo_Color_Symbol" data-name="City Logo_Color_Symbol">
    <g class="cls-9">
      <g class="cls-6">
        <rect class="cls-8" y="0" width="1182.48" height="1182.48"/>
      </g>
      <g class="cls-4">
        <rect class="cls-10" y="0" width="1182.48" height="1182.48"/>
      </g>
      <g class="cls-12">
        <path class="cls-1" d="M591.24,1124.35c-294.45,0-533.02-238.66-533.02-533.02S296.88,58.31,591.24,58.31s533.02,238.66,533.02,533.02-238.66,533.02-533.02,533.02m0-1083.28C287.41,41.07,40.98,287.41,40.98,591.24s246.34,550.26,550.26,550.26,550.26-246.34,550.26-550.26S895.17,41.07,591.24,41.07"/>
        <path class="cls-3" d="M1069.83,591.15c0,260.15-214.47,471.1-479.13,471.1S111.57,851.3,111.57,591.15,325.95,120.05,590.61,120.05s479.22,210.95,479.22,471.1"/>
      </g>
      <g class="cls-7">
        <rect class="cls-15" x="91.62" y="100.19" width="998.07" height="981.91"/>
      </g>
      <g class="cls-14">
        <rect class="cls-2" x="589.16" y="173.58" width="346.89" height="683.94"/>
      </g>
      <g class="cls-5">
        <rect class="cls-13" x="230.72" y="308.17" width="362.06" height="555.04"/>
      </g>
    </g>
  </g>
</svg>